<svg width="20" height="20" viewBox="0 0 20 20" fill="none" xmlns="http://www.w3.org/2000/svg">
<mask id="mask0_400_667" style="mask-type:alpha" maskUnits="userSpaceOnUse" x="0" y="0" width="20" height="20">
<rect width="20" height="20" fill="#D9D9D9"/>
</mask>
<g mask="url(#mask0_400_667)">
<path d="M10 11.5C9.16667 11.5 8.45833 11.2083 7.875 10.625C7.29167 10.0417 7 9.33333 7 8.5C7 7.66667 7.29167 6.95833 7.875 6.375C8.45833 5.79167 9.16667 5.5 10 5.5C10.8333 5.5 11.5417 5.79167 12.125 6.375C12.7083 6.95833 13 7.66667 13 8.5C13 9.33333 12.7083 10.0417 12.125 10.625C11.5417 11.2083 10.8333 11.5 10 11.5ZM10 10C10.4167 10 10.7708 9.85417 11.0625 9.5625C11.3542 9.27083 11.5 8.91667 11.5 8.5C11.5 8.08333 11.3542 7.72917 11.0625 7.4375C10.7708 7.14583 10.4167 7 10 7C9.58333 7 9.22917 7.14583 8.9375 7.4375C8.64583 7.72917 8.5 8.08333 8.5 8.5C8.5 8.91667 8.64583 9.27083 8.9375 9.5625C9.22917 9.85417 9.58333 10 10 10ZM10 18C8.125 17.5417 6.57292 16.4792 5.34375 14.8125C4.11458 13.1458 3.5 11.2986 3.5 9.27083V4.5L10 2L16.5 4.5V9.27083C16.5 11.2986 15.8854 13.1458 14.6562 14.8125C13.4271 16.4792 11.875 17.5417 10 18ZM10 3.60417L5 5.52083V9.27083C5 10.0069 5.10417 10.7222 5.3125 11.4167C5.52083 12.1111 5.80556 12.7569 6.16667 13.3542C6.76389 13.0764 7.38542 12.8646 8.03125 12.7188C8.67708 12.5729 9.33333 12.5 10 12.5C10.6667 12.5 11.3229 12.5729 11.9688 12.7188C12.6146 12.8646 13.2361 13.0764 13.8333 13.3542C14.1944 12.7569 14.4792 12.1111 14.6875 11.4167C14.8958 10.7222 15 10.0069 15 9.27083V5.52083L10 3.60417ZM10 14C9.5 14 9.00694 14.0486 8.52083 14.1458C8.03472 14.2431 7.5625 14.3889 7.10417 14.5833C7.50694 15.0139 7.95139 15.3889 8.4375 15.7083C8.92361 16.0278 9.44444 16.2708 10 16.4375C10.5556 16.2708 11.0764 16.0278 11.5625 15.7083C12.0486 15.3889 12.4931 15.0139 12.8958 14.5833C12.4375 14.3889 11.9653 14.2431 11.4792 14.1458C10.9931 14.0486 10.5 14 10 14Z" fill="white"/>
</g>
</svg>
