<svg width="16" height="15" viewBox="0 0 16 15" fill="none" xmlns="http://www.w3.org/2000/svg">
<path d="M1.5 15C1.0875 15 0.734375 14.8531 0.440625 14.5594C0.146875 14.2656 0 13.9125 0 13.5V4.5C0 4.0875 0.146875 3.73438 0.440625 3.44063C0.734375 3.14688 1.0875 3 1.5 3H5V1.49562C5 1.08187 5.14708 0.729167 5.44125 0.4375C5.73528 0.145833 6.08882 0 6.50187 0H9.50542C9.91847 0 10.2708 0.146876 10.5625 0.440626C10.8542 0.734376 11 1.0875 11 1.5V3H14.5C14.9125 3 15.2656 3.14688 15.5594 3.44063C15.8531 3.73438 16 4.0875 16 4.5V13.5C16 13.9125 15.8531 14.2656 15.5594 14.5594C15.2656 14.8531 14.9125 15 14.5 15H1.5ZM6.5 3H9.5V1.5H6.5V3ZM3 4.5H1.5V13.5H3V4.5ZM11.5 13.5V4.5H4.5V13.5H11.5ZM13 4.5V13.5H14.5V4.5H13Z" fill="#1C1B1F"/>
</svg>
