<svg width="14" height="14" viewBox="0 0 14 14" fill="none" xmlns="http://www.w3.org/2000/svg">
<path d="M3.5625 9.7035L5.77083 7.48235L7.27083 8.98236L10.2084 6.05765V7.79165H11.2916V4.20835H7.70835V5.29165H9.44235L7.27083 7.46317L5.77083 5.96317L2.7965 8.9375L3.5625 9.7035ZM1.75644 13.5833C1.38133 13.5833 1.06426 13.4538 0.805229 13.1948C0.546201 12.9357 0.416687 12.6187 0.416687 12.2436V1.75644C0.416687 1.38133 0.546201 1.06426 0.805229 0.805229C1.06426 0.546201 1.38133 0.416687 1.75644 0.416687H12.2436C12.6187 0.416687 12.9357 0.546201 13.1948 0.805229C13.4538 1.06426 13.5833 1.38133 13.5833 1.75644V12.2436C13.5833 12.6187 13.4538 12.9357 13.1948 13.1948C12.9357 13.4538 12.6187 13.5833 12.2436 13.5833H1.75644ZM1.75644 12.5H12.2436C12.3077 12.5 12.3664 12.4733 12.4199 12.4199C12.4733 12.3664 12.5 12.3077 12.5 12.2436V1.75644C12.5 1.69233 12.4733 1.63356 12.4199 1.58013C12.3664 1.52671 12.3077 1.5 12.2436 1.5H1.75644C1.69233 1.5 1.63355 1.52671 1.58012 1.58013C1.52671 1.63356 1.5 1.69233 1.5 1.75644V12.2436C1.5 12.3077 1.52671 12.3664 1.58012 12.4199C1.63355 12.4733 1.69233 12.5 1.75644 12.5Z" fill="#1C1B1F"/>
</svg>
