<svg width="20" height="21" viewBox="0 0 20 21" fill="none" xmlns="http://www.w3.org/2000/svg">
<mask id="mask0_30_1375" style="mask-type:alpha" maskUnits="userSpaceOnUse" x="0" y="0" width="20" height="21">
<rect y="0.0469971" width="20" height="20" fill="#D9D9D9"/>
</mask>
<g mask="url(#mask0_30_1375)">
<path d="M5.83337 17.547C5.37504 17.547 4.98268 17.3838 4.65629 17.0574C4.3299 16.731 4.16671 16.3387 4.16671 15.8803V5.047H3.33337V3.38033H7.50004V2.547H12.5V3.38033H16.6667V5.047H15.8334V15.8803C15.8334 16.3387 15.6702 16.731 15.3438 17.0574C15.0174 17.3838 14.625 17.547 14.1667 17.547H5.83337ZM14.1667 5.047H5.83337V15.8803H14.1667V5.047ZM7.50004 14.2137H9.16671V6.71366H7.50004V14.2137ZM10.8334 14.2137H12.5V6.71366H10.8334V14.2137Z" fill="#1C1B1F"/>
</g>
</svg>
