<svg width="20" height="20" viewBox="0 0 20 20" fill="none" xmlns="http://www.w3.org/2000/svg">
<mask id="mask0_78_10251" style="mask-type:alpha" maskUnits="userSpaceOnUse" x="0" y="0" width="20" height="20">
<rect width="20" height="20" fill="#D9D9D9"/>
</mask>
<g mask="url(#mask0_78_10251)">
<path d="M10.0082 17.5836C8.96251 17.5836 7.97924 17.3863 7.05833 16.9915C6.13742 16.5968 5.33103 16.0537 4.63919 15.3622C3.94733 14.6706 3.40394 13.8645 3.00904 12.9437C2.61414 12.0229 2.41669 11.0391 2.41669 9.99216C2.41669 8.94524 2.61405 7.96437 3.00877 7.04953C3.40349 6.13469 3.94662 5.33134 4.63815 4.63949C5.32969 3.94763 6.13585 3.40425 7.05662 3.00935C7.9774 2.61444 8.96124 2.41699 10.0081 2.41699C11.0551 2.41699 12.0359 2.61439 12.9508 3.00918C13.8656 3.40397 14.669 3.9472 15.3608 4.63887C16.0527 5.33053 16.5961 6.13366 16.991 7.04824C17.3859 7.96281 17.5833 8.94683 17.5833 10.0003V11.058C17.5833 11.761 17.336 12.3576 16.8415 12.848C16.347 13.3384 15.747 13.5836 15.0416 13.5836C14.5641 13.5836 14.1327 13.4495 13.7476 13.1814C13.3624 12.9132 13.0539 12.5686 12.822 12.1477C12.478 12.5772 12.0606 12.9239 11.5697 13.1878C11.0788 13.4517 10.5556 13.5836 10 13.5836C9.00553 13.5836 8.15969 13.2346 7.46248 12.5364C6.76528 11.8383 6.41669 10.9914 6.41669 9.9956C6.41669 8.99982 6.76575 8.15444 7.46387 7.45945C8.16199 6.76448 9.00893 6.41699 10.0047 6.41699C11.0005 6.41699 11.8459 6.76559 12.5409 7.46278C13.2358 8.15999 13.5833 9.00583 13.5833 10.0003V11.058C13.5833 11.4555 13.7275 11.7953 14.016 12.0773C14.3045 12.3593 14.6463 12.5003 15.0416 12.5003C15.437 12.5003 15.7788 12.3593 16.0673 12.0773C16.3558 11.7953 16.5 11.4555 16.5 11.058V10.0003C16.5 8.19475 15.8681 6.66003 14.6042 5.39614C13.3403 4.13225 11.8056 3.50031 10 3.50031C8.19444 3.50031 6.65972 4.13225 5.39583 5.39614C4.13194 6.66003 3.5 8.19475 3.5 10.0003C3.5 11.8059 4.13194 13.3406 5.39583 14.6045C6.65972 15.8684 8.19444 16.5003 10 16.5003H14V17.5836H10.0082ZM10 12.5003C10.6944 12.5003 11.2847 12.2572 11.7708 11.7711C12.2569 11.285 12.5 10.6947 12.5 10.0003C12.5 9.30586 12.2569 8.71558 11.7708 8.22947C11.2847 7.74336 10.6944 7.50031 10 7.50031C9.30556 7.50031 8.71528 7.74336 8.22917 8.22947C7.74305 8.71558 7.5 9.30586 7.5 10.0003C7.5 10.6947 7.74305 11.285 8.22917 11.7711C8.71528 12.2572 9.30556 12.5003 10 12.5003Z" fill="#1D1D1D"/>
</g>
</svg>
