<svg width="20" height="14" viewBox="0 0 20 14" fill="none" xmlns="http://www.w3.org/2000/svg">
<path d="M13.3334 0.333324L13.3334 1.97916L11.6667 1.97916L11.6667 12L13.3334 12L13.3334 13.6667L11.6667 13.6667C11.2084 13.6667 10.816 13.5035 10.4896 13.1771C10.1632 12.8507 10 12.4583 10 12L10 1.99999C10 1.54166 10.1632 1.1493 10.4896 0.822907C10.816 0.496518 11.2084 0.333324 11.6667 0.333324L13.3334 0.333324ZM6.66668 0.333325C7.12502 0.333325 7.51738 0.496518 7.84377 0.822907C8.17016 1.1493 8.33335 1.54166 8.33335 1.99999L8.33335 12C8.33335 12.4583 8.17016 12.8507 7.84377 13.1771C7.51738 13.5035 7.12502 13.6667 6.66669 13.6667L2.50002 13.6667C2.04169 13.6667 1.64932 13.5035 1.32294 13.1771C0.996548 12.8507 0.833353 12.4583 0.833353 12L0.833352 1.99999C0.833352 1.54166 0.996547 1.1493 1.32293 0.822908C1.64932 0.496519 2.04169 0.333325 2.50002 0.333325L6.66668 0.333325ZM6.66669 1.97916L2.50002 1.97916L2.50002 12L6.66669 12L6.66669 1.97916ZM15.8334 3.66666L17.0209 4.83332L15.7084 6.16666L19.1667 6.16666L19.1667 7.83332L15.7084 7.83332L17.0209 9.14582L15.8334 10.3333L12.5 6.99999L15.8334 3.66666Z" fill="white"/>
</svg>
