<svg width="40" height="40" viewBox="0 0 40 40" fill="none" xmlns="http://www.w3.org/2000/svg">
<mask id="mask0_1227_83" style="mask-type:alpha" maskUnits="userSpaceOnUse" x="0" y="0" width="40" height="40">
<rect width="40" height="40" fill="#D9D9D9"/>
</mask>
<g mask="url(#mask0_1227_83)">
<path d="M7.77792 35C7.02792 35 6.37736 34.7246 5.82625 34.1737C5.27542 33.6226 5 32.9721 5 32.2221V7.77792C5 7.02792 5.27542 6.37736 5.82625 5.82625C6.37736 5.27542 7.02792 5 7.77792 5H22.3612V7.77792H7.77792V32.2221H32.2221V17.6388H35V32.2221C35 32.9721 34.7246 33.6226 34.1737 34.1737C33.6226 34.7246 32.9721 35 32.2221 35H7.77792ZM10 28.2779H30L23.9167 20.1667L18.7221 27.0279L14.8613 21.9167L10 28.2779ZM28.6946 14.8612V11.3333H25.1388V8.55542H28.6946V5H31.4721V8.55542H35V11.3333H31.4721V14.8612H28.6946Z" fill="#255435"/>
</g>
</svg>
