<svg width="136" height="28" viewBox="0 0 136 28" fill="none" xmlns="http://www.w3.org/2000/svg">
<rect x="1.79045" y="11.6097" width="5.76989" height="11.5398" transform="rotate(8.92576 1.79045 11.6097)" fill="#255435"/>
<rect x="8.38567" y="6.80493" width="5.76989" height="17.3097" transform="rotate(8.92576 8.38567 6.80493)" fill="#B6D063"/>
<rect x="14.9809" y="2.00012" width="5.76989" height="23.0795" transform="rotate(8.92576 14.9809 2.00012)" fill="#092E20"/>
<path d="M40.4022 17.7665C40.4022 17.46 40.3571 17.185 40.2669 16.9416C40.1768 16.6892 40.01 16.4548 39.7666 16.2384C39.5232 16.022 39.1716 15.8057 38.7118 15.5893C38.261 15.3639 37.666 15.1295 36.9267 14.8861C36.0612 14.5976 35.2273 14.273 34.4249 13.9124C33.6225 13.5428 32.9058 13.1146 32.2747 12.6277C31.6437 12.1319 31.1433 11.5549 30.7737 10.8968C30.404 10.2296 30.2192 9.45429 30.2192 8.57077C30.2192 7.72332 30.4085 6.96152 30.7872 6.28536C31.1658 5.60018 31.6932 5.01869 32.3694 4.54087C33.0546 4.05404 33.8569 3.6844 34.7765 3.43197C35.6961 3.17052 36.7013 3.0398 37.7922 3.0398C39.2347 3.0398 40.5058 3.29223 41.6057 3.79709C42.7146 4.29294 43.5801 5.00066 44.2022 5.92023C44.8333 6.83079 45.1488 7.90814 45.1488 9.15227H40.4292C40.4292 8.65642 40.3255 8.21917 40.1182 7.84052C39.9198 7.46187 39.6178 7.16436 39.2121 6.94799C38.8064 6.73162 38.2971 6.62344 37.684 6.62344C37.089 6.62344 36.5886 6.71359 36.1829 6.8939C35.7772 7.07421 35.4707 7.31763 35.2634 7.62415C35.056 7.92166 34.9523 8.25073 34.9523 8.61134C34.9523 8.90885 35.0335 9.17932 35.1957 9.42273C35.367 9.65714 35.6059 9.87801 35.9125 10.0854C36.228 10.2927 36.6067 10.4911 37.0484 10.6804C37.4992 10.8697 38.0041 11.0545 38.563 11.2348C39.6088 11.5684 40.5374 11.9426 41.3488 12.3573C42.1692 12.763 42.8589 13.2273 43.4178 13.7501C43.9858 14.264 44.414 14.85 44.7025 15.5082C45 16.1663 45.1488 16.9101 45.1488 17.7395C45.1488 18.623 44.9775 19.4073 44.6349 20.0925C44.2923 20.7777 43.801 21.3592 43.1609 21.837C42.5208 22.3058 41.7545 22.6619 40.862 22.9053C39.9694 23.1488 38.9732 23.2705 37.8733 23.2705C36.8636 23.2705 35.8674 23.1442 34.8847 22.8918C33.911 22.6304 33.0275 22.2337 32.2342 21.7018C31.4408 21.1608 30.8052 20.4712 30.3274 19.6327C29.8586 18.7853 29.6242 17.7801 29.6242 16.6171H34.3844C34.3844 17.1941 34.461 17.6809 34.6142 18.0776C34.7675 18.4742 34.9929 18.7943 35.2904 19.0377C35.5879 19.2721 35.953 19.4434 36.3858 19.5516C36.8185 19.6508 37.3144 19.7003 37.8733 19.7003C38.4774 19.7003 38.9642 19.6147 39.3338 19.4434C39.7035 19.2631 39.9739 19.0287 40.1452 18.7402C40.3165 18.4427 40.4022 18.1181 40.4022 17.7665ZM57.1303 3.31026V23H52.3837V3.31026H57.1303ZM63.0535 3.31026V6.97504H46.5958V3.31026H63.0535ZM81.3503 12.763V13.5608C81.3503 15.0664 81.1385 16.4187 80.7147 17.6178C80.3 18.8078 79.7095 19.8266 78.9432 20.674C78.1769 21.5125 77.2708 22.1571 76.2251 22.6078C75.1793 23.0496 74.0253 23.2705 72.7631 23.2705C71.4919 23.2705 70.3289 23.0496 69.2741 22.6078C68.2283 22.1571 67.3178 21.5125 66.5425 20.674C65.7761 19.8266 65.1811 18.8078 64.7574 17.6178C64.3427 16.4187 64.1353 15.0664 64.1353 13.5608V12.763C64.1353 11.2574 64.3427 9.90506 64.7574 8.70601C65.1811 7.50695 65.7716 6.48821 66.5289 5.64977C67.2952 4.80232 68.2013 4.15771 69.2471 3.71596C70.3019 3.26518 71.4649 3.0398 72.7361 3.0398C73.9982 3.0398 75.1522 3.26518 76.198 3.71596C77.2528 4.15771 78.1634 4.80232 78.9297 5.64977C79.696 6.48821 80.291 7.50695 80.7147 8.70601C81.1385 9.90506 81.3503 11.2574 81.3503 12.763ZM76.5361 13.5608V12.7359C76.5361 11.7622 76.4504 10.9058 76.2791 10.1665C76.1169 9.41823 75.8734 8.79165 75.5489 8.28679C75.2243 7.78192 74.8231 7.40327 74.3453 7.15084C73.8765 6.88939 73.3401 6.75867 72.7361 6.75867C72.105 6.75867 71.555 6.88939 71.0862 7.15084C70.6174 7.40327 70.2253 7.78192 69.9097 8.28679C69.5942 8.79165 69.3553 9.41823 69.193 10.1665C69.0397 10.9058 68.9631 11.7622 68.9631 12.7359V13.5608C68.9631 14.5255 69.0397 15.3819 69.193 16.1302C69.3553 16.8695 69.5942 17.4961 69.9097 18.0099C70.2343 18.5238 70.631 18.9115 71.0998 19.1729C71.5776 19.4344 72.132 19.5651 72.7631 19.5651C73.3672 19.5651 73.9036 19.4344 74.3724 19.1729C74.8412 18.9115 75.2334 18.5238 75.5489 18.0099C75.8734 17.4961 76.1169 16.8695 76.2791 16.1302C76.4504 15.3819 76.5361 14.5255 76.5361 13.5608ZM95.0087 16.3331H99.7418C99.6787 17.7034 99.3091 18.9115 98.6329 19.9573C97.9568 21.0031 97.0192 21.819 95.8201 22.405C94.6301 22.982 93.2237 23.2705 91.6009 23.2705C90.2846 23.2705 89.1081 23.0496 88.0713 22.6078C87.0436 22.1661 86.1691 21.5305 85.4479 20.7011C84.7356 19.8716 84.1902 18.8664 83.8116 17.6854C83.4419 16.5044 83.2571 15.1746 83.2571 13.6961V12.6277C83.2571 11.1492 83.4509 9.81941 83.8386 8.63839C84.2353 7.44835 84.7942 6.43862 85.5155 5.6092C86.2457 4.77076 87.1202 4.13067 88.139 3.68891C89.1577 3.24715 90.2892 3.02627 91.5333 3.02627C93.2462 3.02627 94.6932 3.3328 95.8742 3.94585C97.0552 4.5589 97.9703 5.40184 98.6194 6.47468C99.2685 7.53851 99.6517 8.75108 99.7689 10.1124H95.0358C95.0178 9.37315 94.8915 8.75559 94.6571 8.25974C94.4227 7.75488 94.0531 7.37623 93.5482 7.1238C93.0434 6.87136 92.3717 6.74515 91.5333 6.74515C90.9473 6.74515 90.4379 6.85333 90.0052 7.0697C89.5724 7.28607 89.2118 7.62866 88.9233 8.09746C88.6348 8.56627 88.4184 9.17481 88.2742 9.92309C88.139 10.6624 88.0713 11.5549 88.0713 12.6007V13.6961C88.0713 14.7418 88.1345 15.6344 88.2607 16.3736C88.3869 17.1129 88.5897 17.7169 88.8692 18.1858C89.1487 18.6546 89.5093 19.0016 89.9511 19.227C90.4018 19.4434 90.9518 19.5516 91.6009 19.5516C92.3221 19.5516 92.9307 19.4389 93.4265 19.2135C93.9224 18.9791 94.3055 18.6275 94.576 18.1587C94.8465 17.6809 94.9907 17.0723 95.0087 16.3331ZM106.733 3.31026V23H101.987V3.31026H106.733ZM118.485 3.31026L110.858 13.2904L106.395 18.1722L105.53 13.8178L108.383 9.49035L112.629 3.31026H118.485ZM112.873 23L107.788 14.1288L111.48 11.4106L118.485 23H112.873ZM129.844 17.7665C129.844 17.46 129.799 17.185 129.709 16.9416C129.619 16.6892 129.452 16.4548 129.209 16.2384C128.965 16.022 128.614 15.8057 128.154 15.5893C127.703 15.3639 127.108 15.1295 126.369 14.8861C125.503 14.5976 124.67 14.273 123.867 13.9124C123.065 13.5428 122.348 13.1146 121.717 12.6277C121.086 12.1319 120.586 11.5549 120.216 10.8968C119.846 10.2296 119.661 9.45429 119.661 8.57077C119.661 7.72332 119.851 6.96152 120.229 6.28536C120.608 5.60018 121.136 5.01869 121.812 4.54087C122.497 4.05404 123.299 3.6844 124.219 3.43197C125.138 3.17052 126.144 3.0398 127.234 3.0398C128.677 3.0398 129.948 3.29223 131.048 3.79709C132.157 4.29294 133.022 5.00066 133.644 5.92023C134.276 6.83079 134.591 7.90814 134.591 9.15227H129.871C129.871 8.65642 129.768 8.21917 129.56 7.84052C129.362 7.46187 129.06 7.16436 128.654 6.94799C128.249 6.73162 127.739 6.62344 127.126 6.62344C126.531 6.62344 126.031 6.71359 125.625 6.8939C125.22 7.07421 124.913 7.31763 124.706 7.62415C124.498 7.92166 124.395 8.25073 124.395 8.61134C124.395 8.90885 124.476 9.17932 124.638 9.42273C124.809 9.65714 125.048 9.87801 125.355 10.0854C125.67 10.2927 126.049 10.4911 126.491 10.6804C126.941 10.8697 127.446 11.0545 128.005 11.2348C129.051 11.5684 129.98 11.9426 130.791 12.3573C131.611 12.763 132.301 13.2273 132.86 13.7501C133.428 14.264 133.856 14.85 134.145 15.5082C134.442 16.1663 134.591 16.9101 134.591 17.7395C134.591 18.623 134.42 19.4073 134.077 20.0925C133.735 20.7777 133.243 21.3592 132.603 21.837C131.963 22.3058 131.197 22.6619 130.304 22.9053C129.412 23.1488 128.415 23.2705 127.316 23.2705C126.306 23.2705 125.31 23.1442 124.327 22.8918C123.353 22.6304 122.47 22.2337 121.676 21.7018C120.883 21.1608 120.247 20.4712 119.77 19.6327C119.301 18.7853 119.066 17.7801 119.066 16.6171H123.827C123.827 17.1941 123.903 17.6809 124.057 18.0776C124.21 18.4742 124.435 18.7943 124.733 19.0377C125.03 19.2721 125.395 19.4434 125.828 19.5516C126.261 19.6508 126.757 19.7003 127.316 19.7003C127.92 19.7003 128.406 19.6147 128.776 19.4434C129.146 19.2631 129.416 19.0287 129.587 18.7402C129.759 18.4427 129.844 18.1181 129.844 17.7665Z" fill="black"/>
</svg>
