<svg width="118" height="24" viewBox="0 0 118 24" fill="none" xmlns="http://www.w3.org/2000/svg">
<rect x="1.55157" y="10.0605" width="5" height="10" transform="rotate(8.92576 1.55157 10.0605)" fill="#255435"/>
<rect x="7.26678" y="5.89691" width="5" height="15" transform="rotate(8.92576 7.26678 5.89691)" fill="#B6D063"/>
<rect x="12.982" y="1.73322" width="5" height="20" transform="rotate(8.92576 12.982 1.73322)" fill="#EDA145"/>
<path d="M35.0112 15.4648C35.0112 15.1992 34.9722 14.9609 34.894 14.75C34.8159 14.5312 34.6714 14.3281 34.4604 14.1406C34.2495 13.9531 33.9448 13.7656 33.5464 13.5781C33.1558 13.3828 32.6401 13.1797 31.9995 12.9688C31.2495 12.7188 30.5269 12.4375 29.8315 12.125C29.1362 11.8047 28.5151 11.4336 27.9683 11.0117C27.4214 10.582 26.9878 10.082 26.6675 9.51172C26.3472 8.93359 26.187 8.26172 26.187 7.49609C26.187 6.76172 26.3511 6.10156 26.6792 5.51562C27.0073 4.92187 27.4644 4.41797 28.0503 4.00391C28.644 3.58203 29.3394 3.26172 30.1362 3.04297C30.9331 2.81641 31.8042 2.70312 32.7495 2.70312C33.9995 2.70312 35.1011 2.92188 36.0542 3.35938C37.0151 3.78906 37.7651 4.40234 38.3042 5.19922C38.8511 5.98828 39.1245 6.92188 39.1245 8H35.0347C35.0347 7.57031 34.9448 7.19141 34.7651 6.86328C34.5933 6.53516 34.3315 6.27734 33.98 6.08984C33.6284 5.90234 33.187 5.80859 32.6558 5.80859C32.1401 5.80859 31.7065 5.88672 31.355 6.04297C31.0034 6.19922 30.7378 6.41016 30.5581 6.67578C30.3784 6.93359 30.2886 7.21875 30.2886 7.53125C30.2886 7.78906 30.3589 8.02344 30.4995 8.23438C30.6479 8.4375 30.855 8.62891 31.1206 8.80859C31.394 8.98828 31.7222 9.16016 32.105 9.32422C32.4956 9.48828 32.9331 9.64844 33.4175 9.80469C34.3237 10.0938 35.1284 10.418 35.8315 10.7773C36.5425 11.1289 37.1401 11.5312 37.6245 11.9844C38.1167 12.4297 38.4878 12.9375 38.7378 13.5078C38.9956 14.0781 39.1245 14.7227 39.1245 15.4414C39.1245 16.207 38.9761 16.8867 38.6792 17.4805C38.3823 18.0742 37.9565 18.5781 37.4019 18.9922C36.8472 19.3984 36.1831 19.707 35.4097 19.918C34.6362 20.1289 33.7729 20.2344 32.8198 20.2344C31.9448 20.2344 31.0815 20.125 30.23 19.9062C29.3862 19.6797 28.6206 19.3359 27.9331 18.875C27.2456 18.4062 26.6948 17.8086 26.2808 17.082C25.8745 16.3477 25.6714 15.4766 25.6714 14.4688H29.7964C29.7964 14.9688 29.8628 15.3906 29.9956 15.7344C30.1284 16.0781 30.3237 16.3555 30.5815 16.5664C30.8394 16.7695 31.1558 16.918 31.5308 17.0117C31.9058 17.0977 32.3354 17.1406 32.8198 17.1406C33.3433 17.1406 33.7651 17.0664 34.0854 16.918C34.4058 16.7617 34.6401 16.5586 34.7886 16.3086C34.937 16.0508 35.0112 15.7695 35.0112 15.4648ZM49.5073 2.9375V20H45.394V2.9375H49.5073ZM54.6401 2.9375V6.11328H40.3784V2.9375H54.6401ZM70.4956 11.1289V11.8203C70.4956 13.125 70.312 14.2969 69.9448 15.3359C69.5854 16.3672 69.0737 17.25 68.4097 17.9844C67.7456 18.7109 66.9604 19.2695 66.0542 19.6602C65.1479 20.043 64.1479 20.2344 63.0542 20.2344C61.9526 20.2344 60.9448 20.043 60.0308 19.6602C59.1245 19.2695 58.3354 18.7109 57.6636 17.9844C56.9995 17.25 56.4839 16.3672 56.1167 15.3359C55.7573 14.2969 55.5776 13.125 55.5776 11.8203V11.1289C55.5776 9.82422 55.7573 8.65234 56.1167 7.61328C56.4839 6.57422 56.9956 5.69141 57.6519 4.96484C58.3159 4.23047 59.1011 3.67188 60.0073 3.28906C60.9214 2.89844 61.9292 2.70312 63.0308 2.70312C64.1245 2.70312 65.1245 2.89844 66.0308 3.28906C66.9448 3.67188 67.7339 4.23047 68.3979 4.96484C69.062 5.69141 69.5776 6.57422 69.9448 7.61328C70.312 8.65234 70.4956 9.82422 70.4956 11.1289ZM66.3237 11.8203V11.1055C66.3237 10.2617 66.2495 9.51953 66.1011 8.87891C65.9604 8.23047 65.7495 7.6875 65.4683 7.25C65.187 6.8125 64.8394 6.48438 64.4253 6.26562C64.019 6.03906 63.5542 5.92578 63.0308 5.92578C62.4839 5.92578 62.0073 6.03906 61.6011 6.26562C61.1948 6.48438 60.855 6.8125 60.5815 7.25C60.3081 7.6875 60.1011 8.23047 59.9604 8.87891C59.8276 9.51953 59.7612 10.2617 59.7612 11.1055V11.8203C59.7612 12.6562 59.8276 13.3984 59.9604 14.0469C60.1011 14.6875 60.3081 15.2305 60.5815 15.6758C60.8628 16.1211 61.2065 16.457 61.6128 16.6836C62.0269 16.9102 62.5073 17.0234 63.0542 17.0234C63.5776 17.0234 64.0425 16.9102 64.4487 16.6836C64.855 16.457 65.1948 16.1211 65.4683 15.6758C65.7495 15.2305 65.9604 14.6875 66.1011 14.0469C66.2495 13.3984 66.3237 12.6562 66.3237 11.8203ZM82.3315 14.2227H86.4331C86.3784 15.4102 86.0581 16.457 85.4722 17.3633C84.8862 18.2695 84.0737 18.9766 83.0347 19.4844C82.0034 19.9844 80.7847 20.2344 79.3784 20.2344C78.2378 20.2344 77.2183 20.043 76.3198 19.6602C75.4292 19.2773 74.6714 18.7266 74.0464 18.0078C73.4292 17.2891 72.9565 16.418 72.6284 15.3945C72.3081 14.3711 72.1479 13.2188 72.1479 11.9375V11.0117C72.1479 9.73047 72.3159 8.57812 72.6519 7.55469C72.9956 6.52344 73.48 5.64844 74.105 4.92969C74.7378 4.20312 75.4956 3.64844 76.3784 3.26562C77.2612 2.88281 78.2417 2.69141 79.3198 2.69141C80.8042 2.69141 82.0581 2.95703 83.0815 3.48828C84.105 4.01953 84.8979 4.75 85.4604 5.67969C86.0229 6.60156 86.355 7.65234 86.4565 8.83203H82.355C82.3394 8.19141 82.23 7.65625 82.0269 7.22656C81.8237 6.78906 81.5034 6.46094 81.0659 6.24219C80.6284 6.02344 80.0464 5.91406 79.3198 5.91406C78.812 5.91406 78.3706 6.00781 77.9956 6.19531C77.6206 6.38281 77.3081 6.67969 77.0581 7.08594C76.8081 7.49219 76.6206 8.01953 76.4956 8.66797C76.3784 9.30859 76.3198 10.082 76.3198 10.9883V11.9375C76.3198 12.8438 76.3745 13.6172 76.4839 14.2578C76.5933 14.8984 76.769 15.4219 77.0112 15.8281C77.2534 16.2344 77.5659 16.5352 77.9487 16.7305C78.3394 16.918 78.8159 17.0117 79.3784 17.0117C80.0034 17.0117 80.5308 16.9141 80.9604 16.7188C81.3901 16.5156 81.7222 16.2109 81.9565 15.8047C82.1909 15.3906 82.3159 14.8633 82.3315 14.2227ZM92.4917 2.9375V20H88.3784V2.9375H92.4917ZM102.675 2.9375L96.0659 11.5859L92.1987 15.8164L91.4487 12.043L93.9214 8.29297L97.6011 2.9375H102.675ZM97.812 20L93.4058 12.3125L96.605 9.95703L102.675 20H97.812ZM112.519 15.4648C112.519 15.1992 112.48 14.9609 112.402 14.75C112.324 14.5312 112.179 14.3281 111.968 14.1406C111.757 13.9531 111.453 13.7656 111.054 13.5781C110.664 13.3828 110.148 13.1797 109.507 12.9688C108.757 12.7188 108.035 12.4375 107.339 12.125C106.644 11.8047 106.023 11.4336 105.476 11.0117C104.929 10.582 104.496 10.082 104.175 9.51172C103.855 8.93359 103.695 8.26172 103.695 7.49609C103.695 6.76172 103.859 6.10156 104.187 5.51562C104.515 4.92187 104.972 4.41797 105.558 4.00391C106.152 3.58203 106.847 3.26172 107.644 3.04297C108.441 2.81641 109.312 2.70312 110.257 2.70312C111.507 2.70312 112.609 2.92188 113.562 3.35938C114.523 3.78906 115.273 4.40234 115.812 5.19922C116.359 5.98828 116.632 6.92188 116.632 8H112.542C112.542 7.57031 112.453 7.19141 112.273 6.86328C112.101 6.53516 111.839 6.27734 111.488 6.08984C111.136 5.90234 110.695 5.80859 110.164 5.80859C109.648 5.80859 109.214 5.88672 108.863 6.04297C108.511 6.19922 108.246 6.41016 108.066 6.67578C107.886 6.93359 107.796 7.21875 107.796 7.53125C107.796 7.78906 107.867 8.02344 108.007 8.23438C108.156 8.4375 108.363 8.62891 108.628 8.80859C108.902 8.98828 109.23 9.16016 109.613 9.32422C110.003 9.48828 110.441 9.64844 110.925 9.80469C111.832 10.0938 112.636 10.418 113.339 10.7773C114.05 11.1289 114.648 11.5312 115.132 11.9844C115.625 12.4297 115.996 12.9375 116.246 13.5078C116.503 14.0781 116.632 14.7227 116.632 15.4414C116.632 16.207 116.484 16.8867 116.187 17.4805C115.89 18.0742 115.464 18.5781 114.91 18.9922C114.355 19.3984 113.691 19.707 112.917 19.918C112.144 20.1289 111.281 20.2344 110.328 20.2344C109.453 20.2344 108.589 20.125 107.738 19.9062C106.894 19.6797 106.128 19.3359 105.441 18.875C104.753 18.4062 104.203 17.8086 103.789 17.082C103.382 16.3477 103.179 15.4766 103.179 14.4688H107.304C107.304 14.9688 107.371 15.3906 107.503 15.7344C107.636 16.0781 107.832 16.3555 108.089 16.5664C108.347 16.7695 108.664 16.918 109.039 17.0117C109.414 17.0977 109.843 17.1406 110.328 17.1406C110.851 17.1406 111.273 17.0664 111.593 16.918C111.914 16.7617 112.148 16.5586 112.296 16.3086C112.445 16.0508 112.519 15.7695 112.519 15.4648Z" fill="white"/>
</svg>
