<svg width="24" height="24" viewBox="0 0 24 24" fill="none" xmlns="http://www.w3.org/2000/svg">
<mask id="mask0_78_10267" style="mask-type:alpha" maskUnits="userSpaceOnUse" x="0" y="0" width="24" height="24">
<rect width="24" height="24" fill="#D9D9D9"/>
</mask>
<g mask="url(#mask0_78_10267)">
<path d="M10.7904 14.75H13.2096L12.6692 11.5923C12.929 11.4753 13.1392 11.2896 13.2997 11.0353C13.4601 10.781 13.5404 10.4985 13.5404 10.1877C13.5404 9.76641 13.3892 9.40639 13.087 9.10768C12.7847 8.80896 12.4206 8.6596 11.9947 8.6596C11.5687 8.6596 11.2064 8.81021 10.9077 9.11143C10.609 9.41264 10.4596 9.77549 10.4596 10.2C10.4596 10.5081 10.5398 10.7882 10.7003 11.0403C10.8608 11.2925 11.0709 11.4764 11.3308 11.5923L10.7904 14.75ZM12 21.0807C9.90384 20.5243 8.16314 19.3067 6.77789 17.4279C5.39264 15.5491 4.70001 13.4482 4.70001 11.125V5.74615L12 2.93848L19.3 5.74615V11.125C19.3 13.4482 18.6073 15.5491 17.2221 17.4279C15.8368 19.3067 14.0961 20.5243 12 21.0807ZM12 19.725C13.7333 19.1875 15.1667 18.1125 16.3 16.5C17.4333 14.8875 18 13.0958 18 11.125V6.62498L12 4.3346L5.99999 6.62498V11.125C5.99999 13.0958 6.56665 14.8875 7.69999 16.5C8.83332 18.1125 10.2667 19.1875 12 19.725Z" fill="#414855"/>
</g>
</svg>
