<svg width="20" height="20" viewBox="0 0 20 20" fill="none" xmlns="http://www.w3.org/2000/svg">
<mask id="mask0_229_1699" style="mask-type:alpha" maskUnits="userSpaceOnUse" x="0" y="0" width="20" height="20">
<rect width="20" height="20" fill="#D9D9D9"/>
</mask>
<g mask="url(#mask0_229_1699)">
<path d="M10 13.3334C11.0417 13.3334 11.9271 12.9688 12.6562 12.2396C13.3854 11.5105 13.75 10.625 13.75 9.58337C13.75 8.54171 13.3854 7.65629 12.6562 6.92712C11.9271 6.19796 11.0417 5.83337 10 5.83337C8.95833 5.83337 8.07291 6.19796 7.34375 6.92712C6.61458 7.65629 6.25 8.54171 6.25 9.58337C6.25 10.625 6.61458 11.5105 7.34375 12.2396C8.07291 12.9688 8.95833 13.3334 10 13.3334ZM10 11.8334C9.375 11.8334 8.84375 11.6146 8.40625 11.1771C7.96875 10.7396 7.75 10.2084 7.75 9.58337C7.75 8.95837 7.96875 8.42712 8.40625 7.98962C8.84375 7.55212 9.375 7.33337 10 7.33337C10.625 7.33337 11.1562 7.55212 11.5937 7.98962C12.0312 8.42712 12.25 8.95837 12.25 9.58337C12.25 10.2084 12.0312 10.7396 11.5937 11.1771C11.1562 11.6146 10.625 11.8334 10 11.8334ZM10 15.8334C7.97222 15.8334 6.125 15.2674 4.45833 14.1355C2.79166 13.0035 1.58333 11.4862 0.833328 9.58337C1.58333 7.6806 2.79166 6.16324 4.45833 5.03129C6.125 3.89935 7.97222 3.33337 10 3.33337C12.0278 3.33337 13.875 3.89935 15.5417 5.03129C17.2083 6.16324 18.4167 7.6806 19.1667 9.58337C18.4167 11.4862 17.2083 13.0035 15.5417 14.1355C13.875 15.2674 12.0278 15.8334 10 15.8334ZM10 14.1667C11.5694 14.1667 13.0104 13.7535 14.3229 12.9271C15.6354 12.1007 16.6389 10.9862 17.3333 9.58337C16.6389 8.1806 15.6354 7.06601 14.3229 6.23962C13.0104 5.41323 11.5694 5.00004 10 5.00004C8.43055 5.00004 6.98958 5.41323 5.67708 6.23962C4.36458 7.06601 3.36111 8.1806 2.66666 9.58337C3.36111 10.9862 4.36458 12.1007 5.67708 12.9271C6.98958 13.7535 8.43055 14.1667 10 14.1667Z" fill="#1C1B1F"/>
</g>
</svg>
