<svg width="14" height="16" viewBox="0 0 14 16" fill="none" xmlns="http://www.w3.org/2000/svg">
<path d="M7 9.5C6.16667 9.5 5.45833 9.20833 4.875 8.625C4.29167 8.04167 4 7.33333 4 6.5C4 5.66667 4.29167 4.95833 4.875 4.375C5.45833 3.79167 6.16667 3.5 7 3.5C7.83333 3.5 8.54167 3.79167 9.125 4.375C9.70833 4.95833 10 5.66667 10 6.5C10 7.33333 9.70833 8.04167 9.125 8.625C8.54167 9.20833 7.83333 9.5 7 9.5ZM7 8C7.41667 8 7.77083 7.85417 8.0625 7.5625C8.35417 7.27083 8.5 6.91667 8.5 6.5C8.5 6.08333 8.35417 5.72917 8.0625 5.4375C7.77083 5.14583 7.41667 5 7 5C6.58333 5 6.22917 5.14583 5.9375 5.4375C5.64583 5.72917 5.5 6.08333 5.5 6.5C5.5 6.91667 5.64583 7.27083 5.9375 7.5625C6.22917 7.85417 6.58333 8 7 8ZM7 16C5.125 15.5417 3.57292 14.4792 2.34375 12.8125C1.11458 11.1458 0.5 9.29861 0.5 7.27083V2.5L7 0L13.5 2.5V7.27083C13.5 9.29861 12.8854 11.1458 11.6562 12.8125C10.4271 14.4792 8.875 15.5417 7 16ZM7 1.60417L2 3.52083V7.27083C2 8.00694 2.10417 8.72222 2.3125 9.41667C2.52083 10.1111 2.80556 10.7569 3.16667 11.3542C3.76389 11.0764 4.38542 10.8646 5.03125 10.7188C5.67708 10.5729 6.33333 10.5 7 10.5C7.66667 10.5 8.32292 10.5729 8.96875 10.7188C9.61458 10.8646 10.2361 11.0764 10.8333 11.3542C11.1944 10.7569 11.4792 10.1111 11.6875 9.41667C11.8958 8.72222 12 8.00694 12 7.27083V3.52083L7 1.60417ZM7 12C6.5 12 6.00694 12.0486 5.52083 12.1458C5.03472 12.2431 4.5625 12.3889 4.10417 12.5833C4.50694 13.0139 4.95139 13.3889 5.4375 13.7083C5.92361 14.0278 6.44444 14.2708 7 14.4375C7.55556 14.2708 8.07639 14.0278 8.5625 13.7083C9.04861 13.3889 9.49306 13.0139 9.89583 12.5833C9.4375 12.3889 8.96528 12.2431 8.47917 12.1458C7.99306 12.0486 7.5 12 7 12Z" fill="#1C1B1F"/>
</svg>
