<svg width="21" height="19" viewBox="0 0 21 19" fill="none" xmlns="http://www.w3.org/2000/svg">
<path d="M5.81509 4.4L8.61509 0.775C8.81509 0.508333 9.05259 0.3125 9.32759 0.1875C9.60259 0.0625 9.89009 0 10.1901 0C10.4901 0 10.7776 0.0625 11.0526 0.1875C11.3276 0.3125 11.5651 0.508333 11.7651 0.775L14.5651 4.4L18.8151 5.825C19.2484 5.95833 19.5901 6.20417 19.8401 6.5625C20.0901 6.92083 20.2151 7.31667 20.2151 7.75C20.2151 7.95 20.1859 8.15 20.1276 8.35C20.0693 8.55 19.9734 8.74167 19.8401 8.925L17.0901 12.825L17.1901 16.925C17.2068 17.5083 17.0151 18 16.6151 18.4C16.2151 18.8 15.7484 19 15.2151 19C15.1818 19 14.9984 18.975 14.6651 18.925L10.1901 17.675L5.71509 18.925C5.63176 18.9583 5.54009 18.9792 5.44009 18.9875C5.34009 18.9958 5.24843 19 5.16509 19C4.63176 19 4.16509 18.8 3.76509 18.4C3.36509 18 3.17343 17.5083 3.19009 16.925L3.29009 12.8L0.565094 8.925C0.431761 8.74167 0.335927 8.55 0.277594 8.35C0.219261 8.15 0.190094 7.95 0.190094 7.75C0.190094 7.33333 0.310927 6.94583 0.552594 6.5875C0.794261 6.22917 1.13176 5.975 1.56509 5.825L5.81509 4.4Z" fill="#EDA145"/>
</svg>
