<svg width="20" height="20" viewBox="0 0 20 20" fill="none" xmlns="http://www.w3.org/2000/svg">
<mask id="mask0_400_1289" style="mask-type:alpha" maskUnits="userSpaceOnUse" x="0" y="0" width="20" height="20">
<rect width="20" height="20" fill="#D9D9D9"/>
</mask>
<g mask="url(#mask0_400_1289)">
<path d="M3 13.5V6.5C3 6.09722 3.14687 5.74653 3.44062 5.44792C3.73437 5.14931 4.0875 5 4.5 5H15.5C15.9125 5 16.2656 5.14931 16.5594 5.44792C16.8531 5.74653 17 6.09722 17 6.5V13.5C17 13.9125 16.8531 14.2656 16.5594 14.5594C16.2656 14.8531 15.9125 15 15.5 15H4.5C4.0875 15 3.73437 14.8531 3.44062 14.5594C3.14687 14.2656 3 13.9125 3 13.5ZM8.66667 9.25H15.5V6.5H8.66667V9.25ZM12.8333 13.5H15.5V10.75H12.8333V13.5ZM8.66667 13.5H11.3333V10.75H8.66667V13.5ZM4.5 13.5H7.16667V6.5H4.5V13.5Z" fill="white"/>
</g>
</svg>
