<svg width="16" height="13" viewBox="0 0 16 13" fill="none" xmlns="http://www.w3.org/2000/svg">
<path d="M11.9792 12.9792C11.8681 12.9792 11.7666 12.9668 11.6748 12.9421C11.583 12.9174 11.4969 12.8742 11.4167 12.8125L9.04167 11.3958C8.875 11.2847 8.74306 11.1463 8.64583 10.9806C8.54861 10.8149 8.5 10.6339 8.5 10.4375V7.5625C8.5 7.36611 8.54861 7.18507 8.64583 7.01937C8.74306 6.85368 8.875 6.71528 9.04167 6.60417L11.4167 5.20833C11.5139 5.15278 11.6076 5.11111 11.6979 5.08333C11.7882 5.05556 11.8889 5.04167 12 5.04167C12.1111 5.04167 12.2117 5.05708 12.3017 5.08792C12.3915 5.11875 12.4785 5.15889 12.5625 5.20833L14.9375 6.625C15.1042 6.73611 15.2396 6.87451 15.3438 7.04021C15.4479 7.2059 15.5 7.38694 15.5 7.58333V10.4583C15.5 10.6547 15.4479 10.8358 15.3438 11.0015C15.2396 11.1672 15.1042 11.3056 14.9375 11.4167L12.5556 12.8158C12.463 12.8692 12.3715 12.9097 12.2812 12.9375C12.191 12.9653 12.0903 12.9792 11.9792 12.9792ZM6 6C5.16667 6 4.45833 5.70833 3.875 5.125C3.29167 4.54167 3 3.83333 3 3C3 2.16667 3.29167 1.45833 3.875 0.875C4.45833 0.291667 5.16667 0 6 0C6.83333 0 7.54167 0.291667 8.125 0.875C8.70833 1.45833 9 2.16667 9 3C9 3.83333 8.70833 4.54167 8.125 5.125C7.54167 5.70833 6.83333 6 6 6ZM0 12V10.0833C0 9.72222 0.0868056 9.39236 0.260417 9.09375C0.434028 8.79514 0.673611 8.55556 0.979167 8.375C1.74306 7.93056 2.54861 7.59028 3.39583 7.35417C4.24306 7.11806 5.11111 7 6 7C6.15278 7 6.29514 7.00347 6.42708 7.01042C6.55903 7.01736 6.70139 7.02778 6.85417 7.04167C6.75694 7.27778 6.68403 7.52083 6.63542 7.77083C6.58681 8.02083 6.54861 8.27083 6.52083 8.52083L6 8.5C5.25 8.5 4.51389 8.59722 3.79167 8.79167C3.06944 8.98611 2.38194 9.27778 1.72917 9.66667C1.66042 9.7075 1.605 9.76472 1.56292 9.83833C1.52097 9.91181 1.5 9.99347 1.5 10.0833V10.5H6.72917C6.79653 10.7587 6.88625 11.0144 6.99833 11.2669C7.11056 11.5195 7.24306 11.7639 7.39583 12H0ZM6.00437 4.5C6.41813 4.5 6.77083 4.35271 7.0625 4.05812C7.35417 3.76354 7.5 3.40937 7.5 2.99562C7.5 2.58187 7.35271 2.22917 7.05813 1.9375C6.76354 1.64583 6.40938 1.5 5.99563 1.5C5.58188 1.5 5.22917 1.64729 4.9375 1.94188C4.64583 2.23646 4.5 2.59063 4.5 3.00438C4.5 3.41813 4.64729 3.77083 4.94187 4.0625C5.23646 4.35417 5.59062 4.5 6.00437 4.5ZM9.97917 7.22917L12 8.45833L14.0208 7.22917L12 6L9.97917 7.22917ZM12.5 11.7083L14.5 10.5V8.10417L12.5 9.3125V11.7083ZM9.5 10.5L11.5 11.7083V9.3125L9.5 8.10417V10.5Z" fill="#1C1B1F"/>
</svg>
