<svg width="20" height="20" viewBox="0 0 20 20" fill="none" xmlns="http://www.w3.org/2000/svg">
<mask id="mask0_8_1691" style="mask-type:alpha" maskUnits="userSpaceOnUse" x="0" y="0" width="20" height="20">
<rect width="20" height="20" fill="#D9D9D9"/>
</mask>
<g mask="url(#mask0_8_1691)">
<path d="M2.3045 16.6474V3.64739L6.09617 0.903809L9.88781 3.64739V6.06408H17.6955V16.6474H2.3045ZM3.38781 15.5641H5.3045V13.6474H3.38781V15.5641ZM3.38781 12.3974H5.3045V10.4807H3.38781V12.3974ZM3.38781 9.23075H5.3045V7.31406H3.38781V9.23075ZM3.38781 6.06408H5.3045V4.14739H3.38781V6.06408ZM6.88781 6.06408H8.8045V4.14739H6.88781V6.06408ZM6.88781 15.5641H16.6122V7.14739H6.88781V15.5641ZM11.5481 10.2932V9.20991H14.7916V10.2932H11.5481ZM11.5481 13.5016V12.4182H14.7916V13.5016H11.5481ZM8.8045 10.2932V9.20991H9.88781V10.2932H8.8045ZM8.8045 13.5016V12.4182H9.88781V13.5016H8.8045Z" fill="#092E20"/>
</g>
</svg>
