<svg width="30" height="30" viewBox="0 0 30 30" fill="none" xmlns="http://www.w3.org/2000/svg">
<path d="M2.77792 30C2.02792 30 1.37736 29.7246 0.82625 29.1737C0.275417 28.6226 0 27.9721 0 27.2221V2.77792C0 2.02792 0.275417 1.37736 0.82625 0.826251C1.37736 0.275417 2.02792 0 2.77792 0H17.3612V2.77792H2.77792V27.2221H27.2221V12.6388H30V27.2221C30 27.9721 29.7246 28.6226 29.1737 29.1737C28.6226 29.7246 27.9721 30 27.2221 30H2.77792ZM5 23.2779H25L18.9167 15.1667L13.7221 22.0279L9.86125 16.9167L5 23.2779ZM23.6946 9.86125V6.33333H20.1388V3.55542H23.6946V0H26.4721V3.55542H30V6.33333H26.4721V9.86125H23.6946Z" fill="#255435"/>
</svg>
