<svg width="20" height="20" viewBox="0 0 20 20" fill="none" xmlns="http://www.w3.org/2000/svg">
<mask id="mask0_71_3074" style="mask-type:alpha" maskUnits="userSpaceOnUse" x="0" y="0" width="20" height="20">
<rect width="20" height="20" fill="#D9D9D9"/>
</mask>
<g mask="url(#mask0_71_3074)">
<path d="M13.9792 16.9792C13.8681 16.9792 13.7666 16.9668 13.6748 16.9421C13.583 16.9174 13.4969 16.8742 13.4167 16.8125L11.0417 15.3958C10.875 15.2847 10.7431 15.1463 10.6458 14.9806C10.5486 14.8149 10.5 14.6339 10.5 14.4375V11.5625C10.5 11.3661 10.5486 11.1851 10.6458 11.0194C10.7431 10.8537 10.875 10.7153 11.0417 10.6042L13.4167 9.20833C13.5139 9.15278 13.6076 9.11111 13.6979 9.08333C13.7882 9.05556 13.8889 9.04167 14 9.04167C14.1111 9.04167 14.2117 9.05708 14.3017 9.08792C14.3915 9.11875 14.4785 9.15889 14.5625 9.20833L16.9375 10.625C17.1042 10.7361 17.2396 10.8745 17.3438 11.0402C17.4479 11.2059 17.5 11.3869 17.5 11.5833V14.4583C17.5 14.6547 17.4479 14.8358 17.3438 15.0015C17.2396 15.1672 17.1042 15.3056 16.9375 15.4167L14.5556 16.8158C14.463 16.8692 14.3715 16.9097 14.2812 16.9375C14.191 16.9653 14.0903 16.9792 13.9792 16.9792ZM8 10C7.16667 10 6.45833 9.70833 5.875 9.125C5.29167 8.54167 5 7.83333 5 7C5 6.16667 5.29167 5.45833 5.875 4.875C6.45833 4.29167 7.16667 4 8 4C8.83333 4 9.54167 4.29167 10.125 4.875C10.7083 5.45833 11 6.16667 11 7C11 7.83333 10.7083 8.54167 10.125 9.125C9.54167 9.70833 8.83333 10 8 10ZM2 16V14.0833C2 13.7222 2.08681 13.3924 2.26042 13.0938C2.43403 12.7951 2.67361 12.5556 2.97917 12.375C3.74306 11.9306 4.54861 11.5903 5.39583 11.3542C6.24306 11.1181 7.11111 11 8 11C8.15278 11 8.29514 11.0035 8.42708 11.0104C8.55903 11.0174 8.70139 11.0278 8.85417 11.0417C8.75694 11.2778 8.68403 11.5208 8.63542 11.7708C8.58681 12.0208 8.54861 12.2708 8.52083 12.5208L8 12.5C7.25 12.5 6.51389 12.5972 5.79167 12.7917C5.06944 12.9861 4.38194 13.2778 3.72917 13.6667C3.66042 13.7075 3.605 13.7647 3.56292 13.8383C3.52097 13.9118 3.5 13.9935 3.5 14.0833V14.5H8.72917C8.79653 14.7587 8.88625 15.0144 8.99833 15.2669C9.11056 15.5195 9.24306 15.7639 9.39583 16H2ZM8.00437 8.5C8.41813 8.5 8.77083 8.35271 9.0625 8.05812C9.35417 7.76354 9.5 7.40937 9.5 6.99562C9.5 6.58187 9.35271 6.22917 9.05813 5.9375C8.76354 5.64583 8.40938 5.5 7.99563 5.5C7.58188 5.5 7.22917 5.64729 6.9375 5.94188C6.64583 6.23646 6.5 6.59063 6.5 7.00438C6.5 7.41813 6.64729 7.77083 6.94187 8.0625C7.23646 8.35417 7.59062 8.5 8.00437 8.5ZM11.9792 11.2292L14 12.4583L16.0208 11.2292L14 10L11.9792 11.2292ZM14.5 15.7083L16.5 14.5V12.1042L14.5 13.3125V15.7083ZM11.5 14.5L13.5 15.7083V13.3125L11.5 12.1042V14.5Z" fill="#092E20"/>
</g>
</svg>
