<svg width="20" height="13" viewBox="0 0 20 13" fill="none" xmlns="http://www.w3.org/2000/svg">
<path d="M10 10.3334C11.0417 10.3334 11.9271 9.96879 12.6562 9.23962C13.3854 8.51046 13.75 7.62504 13.75 6.58337C13.75 5.54171 13.3854 4.65629 12.6562 3.92712C11.9271 3.19796 11.0417 2.83337 10 2.83337C8.95833 2.83337 8.07291 3.19796 7.34375 3.92712C6.61458 4.65629 6.25 5.54171 6.25 6.58337C6.25 7.62504 6.61458 8.51046 7.34375 9.23962C8.07291 9.96879 8.95833 10.3334 10 10.3334ZM10 8.83337C9.375 8.83337 8.84375 8.61462 8.40625 8.17712C7.96875 7.73962 7.75 7.20837 7.75 6.58337C7.75 5.95837 7.96875 5.42712 8.40625 4.98962C8.84375 4.55212 9.375 4.33337 10 4.33337C10.625 4.33337 11.1562 4.55212 11.5937 4.98962C12.0312 5.42712 12.25 5.95837 12.25 6.58337C12.25 7.20837 12.0312 7.73962 11.5937 8.17712C11.1562 8.61462 10.625 8.83337 10 8.83337ZM10 12.8334C7.97222 12.8334 6.125 12.2674 4.45833 11.1355C2.79166 10.0035 1.58333 8.48615 0.833328 6.58337C1.58333 4.6806 2.79166 3.16324 4.45833 2.03129C6.125 0.899346 7.97222 0.333374 10 0.333374C12.0278 0.333374 13.875 0.899346 15.5417 2.03129C17.2083 3.16324 18.4167 4.6806 19.1667 6.58337C18.4167 8.48615 17.2083 10.0035 15.5417 11.1355C13.875 12.2674 12.0278 12.8334 10 12.8334ZM10 11.1667C11.5694 11.1667 13.0104 10.7535 14.3229 9.92712C15.6354 9.10073 16.6389 7.98615 17.3333 6.58337C16.6389 5.1806 15.6354 4.06601 14.3229 3.23962C13.0104 2.41323 11.5694 2.00004 10 2.00004C8.43055 2.00004 6.98958 2.41323 5.67708 3.23962C4.36458 4.06601 3.36111 5.1806 2.66666 6.58337C3.36111 7.98615 4.36458 9.10073 5.67708 9.92712C6.98958 10.7535 8.43055 11.1667 10 11.1667Z" fill="#1C1B1F"/>
</svg>
